<svg xmlns="http://www.w3.org/2000/svg" width="289.328" height="374.718" viewBox="0 0 289.328 374.718">
  <path id="Path_1" data-name="Path 1" d="M313.4,195.019a7.326,7.326,0,0,0-5.908-4.051h0a48.97,48.97,0,0,0-11.816,1.82c3.013-31.466,5.495-80.545-7.09-87.531h0l-.768-.352h-1.063c-2.363-.411-4.727.587-11.167,7.514-11.462-37.631-21.21-56.886-29.009-57.3H246.1q-12.171,0-28.241,16.085a221.986,221.986,0,0,0-36.04-52.072h0a4.2,4.2,0,0,0-1.359-.881h-.354a4.221,4.221,0,0,0-1.95,0h0c-36.513,8.219-52.406,33.521-61.623,56.827-7.208-8.688-12.88-12.622-17.725-12.563H95.678C83.862,65.043,76,86,72.045,99.093a15.469,15.469,0,0,0-7.208-5.46,11.463,11.463,0,0,0-9.217,1.7h0c-3.19,2.055-12.7,8.336-14.711,88.059a14.921,14.921,0,0,0-8.626,0h0a9.785,9.785,0,0,0-2.068.822,10.894,10.894,0,0,0-4.667,9.8c-.709,38.159,35.449,73.089,66.29,96.1,0,7.28.768,27.709,15.657,37.161a79.067,79.067,0,0,0,21.329,8.043l1.6,51.837a4.3,4.3,0,0,0,4.195,4.168l47.856,1.526h0a4.3,4.3,0,0,0,4.313-3.816l5.495-48.433a68.684,68.684,0,0,0,20.679-3.992,35.27,35.27,0,0,0,23.633-29.353Q272.57,291.942,288.7,267.4h0a50.593,50.593,0,0,0,2.718-4.462C310.441,229.009,318.358,204.235,313.4,195.019Zm-39.171,49.254-1.95-2.29L270.62,240.4l-1.95-2.113-1.654-1.761-2.3-2.407-1.418-1.468-3.545-3.4-.945-.587-2.777-2.407-1.241-1.057-2.3-2.407-1.241-.881-2.718-1.82-.886-.587a32.652,32.652,0,0,0-6.972-3.229h-.827a17.82,17.82,0,0,0-2.422-.47h-.945a12.778,12.778,0,0,0-2.245,0H233.4a10.683,10.683,0,0,0-2.127.646h-.414l-.65.47h-.355l-.473.352a12.709,12.709,0,0,0-1.6,1.115,20.824,20.824,0,0,0-1.359,1.585,21.81,21.81,0,0,0-1.477,1.761c0,.352-.532.881-.768,1.292-5.14,8.16-9.453,22.367-15.066,42.092-1.359,4.7-2.718,9.51-4.136,14.148v.822l-2.718-3.464-1.891-1-5.376-6.516-1.654-1.937-4.431-5.107-2.363-2.642-4.254-4.755-2.6-2.818-4.49-4.814-2.363-2.466a4.011,4.011,0,0,0,.709-.587s14.357-18.845,30.723-37.513c27.414-30.879,40.058-38.042,45.434-39.45a149.439,149.439,0,0,1-7.8,21.134,4.281,4.281,0,0,0,2.038,5.724,4.333,4.333,0,0,0,5.761-2.025,151.265,151.265,0,0,0,7.681-20.43,115.127,115.127,0,0,1,12.289,33.228c.473,1.879.945,3.757,1.418,5.871l.414,1.879.886,3.816.473,2.29.709,3.464.473,2.348.65,3.288.473,2.348.591,3.17.414,2.172.532,3.17.354,2.055.532,2.994.3,1.82.473,2.994v1.409l-3.013-3.581ZM89.947,220.2l-1.123-1.174L84.1,214.157l-1.3-1.292q-2.954-2.877-5.908-5.871l-1.241-.587Q72.931,204,70.1,201.652l-.354-.646a8.259,8.259,0,0,1,.591-2.994,14.8,14.8,0,0,1,.768-3.4c.3-1.174.709-2.877,1.123-4.286s.591-2.231.945-3.346.886-2.877,1.359-4.344l1.063-3.288c.473-1.468,1-2.877,1.536-4.344l1.123-3.17,1.654-4.286,1.123-2.935,1.772-4.227,1.123-2.583,2.009-4.344.945-2c.945-2,1.891-3.875,2.836-5.871h0a116.663,116.663,0,0,1,9.276-15.44,258.814,258.814,0,0,0-.355,27,4.3,4.3,0,0,0,4.313,4.051h0a4.324,4.324,0,0,0,2.983-1.419,4.269,4.269,0,0,0,1.094-3.1,244.414,244.414,0,0,1,.3-24.715A676.7,676.7,0,0,1,135.145,194.2l2.3,5.871.355.881,2.186,5.46h0L142,211.456v.587l1.832,4.579h0l-1.063-.881-1.536-1.233-2.541-1.937-1.359-1-2.6-1.879-.886-.646-3.19-2.113h-.473l-2.363-1.409-.827-.47-1.713-.939-.827-.411-1.477-.7h-.709l-1.477-.528h-.414L118.72,202h-5.2a11.879,11.879,0,0,0-2.9.763h-.591a14.146,14.146,0,0,0-2.6,1.468l-.414.352a18.98,18.98,0,0,0-2.186,1.937l-.354.352a26.917,26.917,0,0,0-2.127,2.7l-.414.646c-.65,1-1.3,2.055-1.95,3.229h0c-.591,1.115-1.123,2.348-1.654,3.581l-.354.763q-.768,1.879-1.418,3.816v.7q-.591,1.82-1.123,3.7v.411l-.354-.352Q92.606,223.08,89.947,220.2Zm54.592-93.93h0c25.7-26.3,39.29-33.462,44.843-33.639l-6.735,29.647a4.263,4.263,0,0,0,.54,3.257,4.312,4.312,0,0,0,2.709,1.909h.945a4.307,4.307,0,0,0,4.195-3.346l5.908-25.126.591.822h0c12.407,18.492,26.587,60.056,30.132,70.858a261.781,261.781,0,0,0-24.578,24.011c-5.495-17.964-12.644-35.693-26.882-47.611h0a4.205,4.205,0,0,0-1.3-.646h-.532a4.161,4.161,0,0,0-1.891,0c-10.162,3.464-20.738,19.667-31.9,36.985-5.908-14.97-11.226-26.594-15.3-35.576,1.773-2.642,9.453-11.506,19.32-21.369Zm20.915,110.367q-3.545-3.522-7.09-6.869l-4.018-10.391-.3-.763-.886-2.231-1.418-3.64-.709-1.7-1.772-4.462-.355-.881-2.009-4.99-.354-1.057-2.3-5.871v-.7l2.659-4.109a207.512,207.512,0,0,1,21.27-29.353c-.945,7.691-2.068,16.262-2.068,16.262L174.671,177s1.182-9.158,2.127-17.083c9.749,11.33,14.948,26.535,19.615,42.562C181.465,219.44,169,235.761,166.872,238.226ZM117.3,297.7h0c-15.539-10.861-18.788-38.981-15.3-60.526h0a16.791,16.791,0,0,1,.591-2.994c.177-1,.355-1.879.532-2.759s.591-2.172.886-3.229.354-1.35.532-1.937.768-2.231,1.182-3.346l.414-1.174c.473-1.233,1-2.29,1.477-3.346v-.47a21.539,21.539,0,0,1,4.018-5.871,194.621,194.621,0,0,0,14,33.756,4.353,4.353,0,0,0,5.967,1.409,4.294,4.294,0,0,0,1.418-5.929,174.974,174.974,0,0,1-12.289-29.353,47.769,47.769,0,0,1,5.14,2.818l.591.352.709.47a182.916,182.916,0,0,1,24.165,19.725l.414.411c2.481,2.348,4.963,4.755,7.5,7.28l2.659,2.7,4.786,4.873,2.954,3.17,4.313,4.579,2.9,3.229,3.958,4.4,2.777,3.17,3.663,4.227,2.541,2.994,3.25,3.875,2.186,2.759,2.718,3.464,1.832,2.466L201.317,291v.294c-.591,1.761-1.182,3.346-1.713,4.814v.7c-.532,1.409-1.063,2.759-1.6,3.933v.528c-.532,1.174-1,2.29-1.477,3.229h0a38.8,38.8,0,0,1-2.659,4.638h0l-1.064,1.35h0l-.886.881h0l-.709.528h0c-3.6,1.7-11.285,3.4-27,2a97.182,97.182,0,0,1-42.185-14.618ZM287.813,252.14l-.65-4.168v-1.115l-.532-3.4-.3-1.82-.532-3.17-.354-2.113L284.859,233l-.414-2.172-.709-3.64-.414-2.113-1.063-5.284v-.7q-.591-2.818-1.241-5.871l-.827-2.172-.886-3.757v-.822c6.735-2.113,14.652-4.4,20.442-5.871a155.7,155.7,0,0,1-9.985,17.612,4.292,4.292,0,0,0,.975,6.017,4.355,4.355,0,0,0,6.056-.969,138.294,138.294,0,0,0,8.921-15.146,169.1,169.1,0,0,1-17.9,44.03ZM277,198.306c-7.976-29.353-14.948-36.222-19.615-38.746a11.881,11.881,0,0,0-8.98-1.35c8.449-11.037,19.615-25.244,28.064-35.224h0l2.836-3.17a88.2,88.2,0,0,1-4.549,16.907,4.262,4.262,0,0,0,.082,4.416,4.326,4.326,0,0,0,7.6-.541,91.826,91.826,0,0,0,5.2-18.551,351.993,351.993,0,0,1-1.182,72.619v.352ZM239.543,64.632a56.481,56.481,0,0,0-.886,31.466,4.407,4.407,0,0,0,8.331-2.877,48.721,48.721,0,0,1,1.182-26.711,285.958,285.958,0,0,1,20.383,52.835c-11.344,13.326-26.587,33.228-34.327,43.5-4.963-14.794-16.779-47.141-28-65.105h0l1.6-2.231.591-.822,2.659-3.522.709-.881,2.6-3.229,1-1.233c1.241-1.468,2.481-2.935,3.84-4.4a65.546,65.546,0,0,1,20.324-16.79ZM172.13,27.765l-5.613,21.252a4.283,4.283,0,0,0,3.072,5.225h1.123a4.308,4.308,0,0,0,4.195-3.229l5.436-20.723a216.723,216.723,0,0,1,30.782,46.965l-.709.881L209,79.837l-1.536,1.82-1.3,1.644L204.8,85l-1.182,1.526-1.182,1.585-.886,1.174-.591.822a27.094,27.094,0,0,0-3.722-3.7h0c-5.908-4.638-18.434-5.871-54.415,29.705a353.051,353.051,0,0,0-20.738-33.932C129.827,60.171,142.353,37.217,172.13,27.765ZM93.374,73.086a74.454,74.454,0,0,0,5.495,23.482,4.351,4.351,0,0,0,5.7,2.26,4.3,4.3,0,0,0,2.275-5.665,65.81,65.81,0,0,1-4.786-20.547,68.6,68.6,0,0,1,11.816,13.091h0a348.067,348.067,0,0,1,22.687,37.161c-6.617,6.751-12.171,12.915-15.539,16.731-10.871-22.543-13.884-22.9-16.484-23.071S97.51,116,87.643,132.32a135.81,135.81,0,0,0-8.685-24.011C81.557,95.864,87.466,79.6,93.374,73.086ZM57.452,108.31a116.786,116.786,0,0,1,3.6,15.087,4.294,4.294,0,0,0,3.6,4.227h.709a4.307,4.307,0,0,0,4.372-3.464A82.8,82.8,0,0,0,64.9,103.378a24.547,24.547,0,0,1,5.376,7.338A148.34,148.34,0,0,1,81.2,143.3l-1.536,3.111-.945,1.879q-1.418,2.994-2.9,6.282l-.473,1.115c-.827,1.82-1.6,3.757-2.422,5.871l-.945,2.466-1.832,4.755-1,2.818-1.654,4.7-1,2.994c-.532,1.585-1,3.17-1.477,4.755l-.886,2.935c-.473,1.7-.886,3.4-1.359,5.107s-.414,1.7-.65,2.583v.646c-2.068-1.468-4.018-2.818-5.908-4.051l-1.832-1.115-3.958-2.583-.886-.528c.945-45.908,4.608-68.921,7.8-78.666ZM34.292,197.9a88.436,88.436,0,0,0,11.816,19.021,4.389,4.389,0,0,0,6.174-.264,4.323,4.323,0,0,0-.266-6.135,95.025,95.025,0,0,1-10.4-17.612l1.3.528.945.47a84.818,84.818,0,0,1,13.057,8.043q2.541,1.82,5.14,3.933h0l4.49,3.7,1.536,1.35,2.954,2.583,1.713,1.585,2.659,2.466,1.772,1.761,2.422,2.407,1.713,1.82,2.245,2.348,1.6,1.761,2.068,2.348,1.477,1.761,1.891,2.29,1.3,1.644,1.123,1.526V238.4c0,.411-.3,2.348-.414,3.522a10.913,10.913,0,0,0,0,2v18.14a15.025,15.025,0,0,0,.414,3.875c.414,1.292,0,1.292,0,1.937a28.819,28.819,0,0,0,.591,3.522l.354,1.879a15.6,15.6,0,0,0,.886,3.64l.414,1.526a43.948,43.948,0,0,0,1.654,4.931h0C68.441,262.589,35.769,231.181,34.292,197.9ZM178.747,384.287l-39.821-1.233-1.359-45.908,5.376.881v6.751a4.343,4.343,0,0,0,8.685,0V339.2c5.2.646,10.694,1.174,16.366,1.526L165.986,349a4.284,4.284,0,0,0,3.19,5.166h1a4.308,4.308,0,0,0,4.195-3.288l2.363-9.921h6.913Zm31.018-55.419c-10.871,4.52-35.449,4.99-61.918,1.233-4.9-.646-9.571-1.468-13.825-2.407h0a78.04,78.04,0,0,1-21.919-7.162c-8.272-5.284-10.753-16.027-11.4-23.482l.886.587q4.727,3.287,9.749,6.458l.709.47h.354l3.722,2.348a105.843,105.843,0,0,0,46.025,15.968l5.613.411h12.289a27.591,27.591,0,0,0,4.549-.528h1.123l3.19-.7h1a28.823,28.823,0,0,0,3.309-1.174h2.186l2.481-.47h0l2.954-.646h.65l3.6-.881h.768l4.254-1.115h0l4.372-1.292h.945l4.786-1.526,1.063-.352,5.2-1.82h0A28.337,28.337,0,0,1,209.765,328.868Zm21.151-28.238c-2.659,1.115-5.317,2.113-7.858,3.053h0a200.659,200.659,0,0,1-19.911,5.871l.709-1.409.768-1.585,1.182-2.642.709-1.761,1.3-3.4.65-1.7c.65-1.82,1.3-3.7,1.95-5.871h0c2.422-7.28,4.727-15.44,6.972-23.482.945-3.229,1.891-6.693,2.954-10.215A161.41,161.41,0,0,1,230.8,228.657a164.741,164.741,0,0,0,11.462,27,4.36,4.36,0,0,0,6.026,1.174,4.3,4.3,0,0,0,1.182-5.988,174.724,174.724,0,0,1-10.989-26.418h1.477l1.536.763.886.528,1.477.881,1,.7,1.536,1.115,1.123.881,1.654,1.292,1.182,1,1.772,1.526,1.182,1.115,1.95,1.879,1.182,1.115,2.363,3.17.945,1,3.013,3.17.354.411,3.545,3.933.354.411,3.19,3.7,1,1.233,2.541,3.053,1.359,1.644,2.245,2.818,1.536,1.937,1.123,1.526C269.852,279.555,253.368,291.414,230.917,300.631Z" transform="translate(-25.514 -18.141)" fill="#8effa0"/>
</svg>
