<svg xmlns="http://www.w3.org/2000/svg" width="121.966" height="37.22" viewBox="0 0 121.966 37.22">
  <g id="Group_188" data-name="Group 188" transform="translate(-106.75 -11.75)">
    <path id="mato-mato" d="M383.6,150.832a.371.371,0,0,0-.293-.123c-.379.017-9.373.5-15.3,6.869-.24.258-.458.5-.658.728-2.435,2.788-2.866,6.551-.98,8.579l.52.559q-.383.17-.782.322a5.858,5.858,0,0,0-2.92,2.557,11.616,11.616,0,0,0-4.413-8.1l.435-.467c1.35-1.45,1.054-4.136-.675-6.112-.139-.16-.291-.328-.458-.507-4.136-4.444-10.406-4.78-10.67-4.792a.377.377,0,0,0-.293.122.447.447,0,0,0-.115.315c.012.284.324,7.024,4.46,11.467q.25.268.47.491a5.107,5.107,0,0,0,3.507,1.635,2.912,2.912,0,0,0,2.184-.908l.593-.637c4.174,2.963,4.291,8.112,4.283,8.914a15.423,15.423,0,0,0-.866,3.482l-4.044,4.345a2.021,2.021,0,0,0-2.857.1,2.414,2.414,0,0,0-.187,3.065,2.03,2.03,0,0,0,2.82.5,2.387,2.387,0,0,0,.741-2.966l3.375-3.627a32.28,32.28,0,0,0,.132,5.937,2.282,2.282,0,0,0-1.55,2.573,2.155,2.155,0,0,0,2.24,1.9,2.3,2.3,0,0,0,.091-4.53,32.292,32.292,0,0,1-.1-6.015l3.492,3.758a2.389,2.389,0,0,0-.235,1.038,2.254,2.254,0,0,0,1.664,2.235,2.088,2.088,0,0,0,2.388-1.266,2.394,2.394,0,0,0-.637-2.779,2.012,2.012,0,0,0-2.662.071l-3.891-4.182a14.621,14.621,0,0,1,.82-3.332.051.051,0,0,1,.008-.02,5.712,5.712,0,0,1,3.129-3.483q.575-.221,1.115-.475l1.182,1.27a4.041,4.041,0,0,0,3.033,1.26,7.2,7.2,0,0,0,4.948-2.314q.316-.322.676-.707c5.926-6.368,6.375-16.035,6.392-16.444A.447.447,0,0,0,383.6,150.832Zm-31.139,11.3q-.212-.215-.453-.474c-3.3-3.552-4.043-8.833-4.191-10.434,1.49.162,6.4.951,9.709,4.5.161.174.307.336.441.488,1.438,1.646,1.742,3.82.693,4.948l-.561.6-.112-.069c-1.113-.819-4.386-3.452-5-6.1a.411.411,0,0,0-.27-.32.372.372,0,0,0-.39.1.442.442,0,0,0-.1.418c.68,2.942,4.1,5.7,5.293,6.58l-.458.492C356.017,164,354,163.677,352.463,162.13Zm3.754,20.571a1.4,1.4,0,1,1,1.3-1.394A1.348,1.348,0,0,1,356.217,182.7Zm11.456-2.779a1.4,1.4,0,1,1-1.3,1.394A1.348,1.348,0,0,1,367.672,179.922Zm-4.235,4.87a1.3,1.3,0,1,1-1.3-1.394A1.348,1.348,0,0,1,363.438,184.793ZM376.772,167c-.234.251-.453.48-.66.688-2.283,2.3-5.309,2.773-6.894,1.072l-.98-1.054a13.734,13.734,0,0,0,2.722-1.9c2.006-1.813,4.536-4.576,5.2-7.441a.423.423,0,0,0-.285-.508.39.39,0,0,0-.473.307c-.611,2.645-3.024,5.266-4.943,7a13.045,13.045,0,0,1-2.8,1.917l-.73-.789c-1.585-1.7-1.147-4.956,1-7.408.2-.222.406-.458.641-.71,4.979-5.351,12.463-6.4,14.342-6.585C382.732,153.6,381.754,161.643,376.772,167Z" transform="translate(-239.998 -138.346)" stroke="#000" stroke-miterlimit="10" stroke-width="0.5"/>
    <text id="MatoMato" transform="translate(151.715 36.5)" font-size="16" font-family="Europa-Bold" font-weight="700"><tspan x="0" y="0">MatoMato</tspan></text>
  </g>
</svg>
