<svg xmlns="http://www.w3.org/2000/svg" width="299.149" height="303.874" viewBox="0 0 299.149 303.874">
  <g id="Group_124" data-name="Group 124" transform="translate(0 82.163) rotate(-21)">
    <g id="Group_64" data-name="Group 64">
      <g id="Group_63" data-name="Group 63">
        <path id="Path_3" data-name="Path 3" d="M80.012,48.593a3.477,3.477,0,0,0-6.6,2.185,70.771,70.771,0,0,1,2.8,20.186v1.615a3.467,3.467,0,0,0,3.42,3.562h0a3.467,3.467,0,0,0,3.467-3.42V70.964a76.945,76.945,0,0,0-3.087-22.371Z" transform="translate(119.573 55.325)" fill="#8effa0"/>
        <g id="Group_62" data-name="Group 62">
          <path id="Path_2" data-name="Path 2" d="M207.9,66.678h0a17.5,17.5,0,0,0-2.374-1.076c-17.69-8.122-40.61-12.35-68.351-12.35h-5.155C130.462,36.972,145.593,31,146.261,30.667a2.707,2.707,0,0,0,0-5.044l-16.5-7.417a2.782,2.782,0,0,0-1.446-.223c-1.409,0-13.648,2.707-17.208,36.345C52.134,60.559,19.09,88.263,19.09,132.618c0,56.78,49.029,122.831,112.262,122.831,64.828,0,117.009-67.2,117.009-122.831C248.361,102.1,234.342,79.77,207.9,66.678Zm-30.559-4.45h-7.417a2.707,2.707,0,0,0-1.261,5.044,35.047,35.047,0,0,1,15.762,18.247c-13.722-13.2-41.092-17.171-42.539-17.394a2.707,2.707,0,0,0-2.6,4.228c5.3,7.64,1.891,17.245-1.928,23.884-1.261-18.543-17.876-27.593-18.1-27.7a2.707,2.707,0,0,0-1.038-.3c-21.584-1.929-34.231,19.8-39.535,32.043A72.95,72.95,0,0,1,80.914,75.69a2.707,2.707,0,0,0-3.375-3.338c-15.243,4.525-27.63,20.286-33.6,29.15a26.665,26.665,0,0,1,10.31-23.661h0C80.209,61.263,116.665,58.63,136.989,58.63a208.654,208.654,0,0,1,40.276,3.6Zm-48.88-38.533,10.533,4.673a26.628,26.628,0,0,0-12.684,25.071c-3.3,0-6.564.3-9.754.556C119.336,29.777,126.493,24.659,128.459,23.694Zm2.893,226.229C71.16,249.924,24.5,186.876,24.5,132.507A61.6,61.6,0,0,1,39.636,90.08a36.567,36.567,0,0,0,.223,19.471,2.707,2.707,0,0,0,2.3,2h.334a2.707,2.707,0,0,0,2.374-1.409c0-.26,12.832-22.883,29.669-30.93-1.483,7.417-3.227,21.214,1.335,30.819a2.707,2.707,0,0,0,5.044-.371c0-.371,11.757-37.791,36.123-35.974,2.893,1.78,18.543,12.35,14.019,31.858a2.707,2.707,0,0,0,4.673,2.411c.7-.816,15.762-17.95,10.533-33.378,11.126,2.336,37.087,9.309,40.017,24.626a2.744,2.744,0,0,0,2.781,2.188,2.707,2.707,0,0,0,2.6-2.411,38.125,38.125,0,0,0-13.425-31.3c9.272,0,21.844.89,26.777,3.709a2.67,2.67,0,0,0,.964.3c21.547,10.681,37.087,29.373,37.087,60.971C242.946,185.8,193.064,250,131.352,250Z" transform="translate(-19.09 -17.965)" fill="#8effa0"/>
          <path id="Path_4" data-name="Path 4" d="M82.255,63.345A100.976,100.976,0,0,1,65.346,70.8a3.467,3.467,0,0,0,1.092,6.792,3.421,3.421,0,0,0,1.14,0,107.916,107.916,0,0,0,18.1-7.98,3.571,3.571,0,1,0-3.42-6.27Z" transform="translate(95.276 101.389)" fill="#8effa0"/>
        </g>
        <path id="Path_5" data-name="Path 5" d="M87.284,56.035a3.515,3.515,0,0,0-4.512,2.042A57.282,57.282,0,0,1,71.325,76.554a3.5,3.5,0,1,0,5.13,4.75A64.168,64.168,0,0,0,89.279,60.6a3.467,3.467,0,0,0-1.995-4.56Z" transform="translate(108.929 80.775)" fill="#8effa0"/>
      </g>
    </g>
  </g>
</svg>
