<svg id="OUTLINE" xmlns="http://www.w3.org/2000/svg" viewBox="0 0 505.04 500.47"><title>logo</title><path d="M502.5,12.75a8.64,8.64,0,0,0-4.41-8.34,8.15,8.15,0,0,0-5.59-1.66C455,6.3,417.16,16.31,382.29,30.26c-30,12-58.58,27.55-82.92,48.95a199,199,0,0,0-35,40.92c-9.65,14.77-18.49,31.41-21.28,49-2.08,13.2-.75,26,4.94,38.19,3.76,8,9.4,15.06,15.36,21.62l-.41.2c-14.71,7.39-29.84,15.16-41.95,26.53l-.63.62A186.3,186.3,0,0,0,199,200a149.38,149.38,0,0,0-21.41-28.41c-2.92-3-6-5.87-9.18-8.63A58.74,58.74,0,0,0,183,137.54c4.78-17.78.09-36.43-9.41-51.82-14.79-23.94-39-42.19-63.18-55.84A238.71,238.71,0,0,0,43.78,4.42C32.19,1.91,19.46-.73,7.5-.25,2.44-.25-3,4.34-2.5,9.75-.41,34.59,5.31,59.6,13.1,83.21c6.86,20.8,15.76,41.28,28,59.53,12.76,19.09,29.73,37.82,51,47.41,11.4,5.15,24,7.57,36.31,4.33,10.54-2.78,19.08-9.3,26-17.32a135.67,135.67,0,0,1,20.4,22.24c11.68,16.5,19.26,34.46,24.09,54q1.53,6.18,2.65,12.46c.31,1.77.59,3.55.86,5.33.05.29.09.59.13.88l.21,1.67c.33,2.84.63,5.71.73,8.57a85.69,85.69,0,0,0-3.16,10.1c-3.61,14.64-4.77,29.91-5.14,45.13a10.25,10.25,0,0,0-1.25,1.15l-48.47,52.44a36.17,36.17,0,0,0-26.67-5.68c-16,2.82-27.1,17-28.21,32.72a10.26,10.26,0,0,0-.08,1.59,10.76,10.76,0,0,0,.12,1.92,35.58,35.58,0,0,0,23.09,31c13.25,5,29.15.69,38.25-10.07a35.6,35.6,0,0,0,6.1-35.67L195,367v65.22a35,35,0,0,0-22.88,24.3,35.54,35.54,0,0,0,14.49,37.89c13.3,9.15,30.94,7,42.82-3.19a11,11,0,0,0,1.32-1.18,11.11,11.11,0,0,0,1.35-1.54,35.51,35.51,0,0,0,5.42-38.3A35,35,0,0,0,215,431.47V368.25L250.91,406a35.17,35.17,0,0,0,1.37,32.41c7.53,12.86,22.42,19.21,36.93,16.65,16-2.83,27.1-17,28.21-32.73a10.26,10.26,0,0,0,.08-1.59,10.82,10.82,0,0,0-.12-1.92,35.58,35.58,0,0,0-23.09-31,35,35,0,0,0-30.1,3.14l-48.9-51.43c.11-4.06.26-8.12.48-12.18.27-4.81.63-9.61,1.16-14.39.33-3.06.21-2.13.6-4.71.31-2,.65-3.94,1-5.89a95.74,95.74,0,0,1,2.69-10.54c.51-1.59,1.1-3.15,1.69-4.71a.42.42,0,0,0,0-.09c0-.07.08-.16.13-.26.37-.76.71-1.54,1.09-2.3a66.87,66.87,0,0,1,4.77-7.86l.23-.32c.5-.6,1-1.2,1.5-1.79q1.53-1.75,3.18-3.39t3.52-3.25c.57-.49,1.16-1,1.74-1.46l1.05-.82q4.19-3.1,8.62-5.86c7.35-4.59,15-8.6,22.76-12.5q2.58-1.31,5.19-2.56c2.25,3,4.61,5.91,7.09,8.7,7.64,8.61,16.89,16.38,27.47,21.08,30.84,13.73,61.69-.26,86-20.42,29.89-24.78,52.44-58.25,68.48-93.35A416.23,416.23,0,0,0,502.36,15.29c0-.47.05-.95.08-1.43A10,10,0,0,0,502.5,12.75ZM128.6,173.06c-6.86,3.68-14.11,3.66-21.58,1.49-18.81-5.46-34.55-22-45.62-37.46-11.37-15.9-20-33.66-26.55-52A340.45,340.45,0,0,1,20.67,31.62q-.92-5-1.7-10.11l-.15-1,3,.32.66.08,1.76.24c1.91.29,3.81.59,5.71.92a220,220,0,0,1,56.84,18C110.2,51.29,133,66.45,149.71,86.53c5.47,6.56,10.36,14.66,12.78,21.93a56.53,56.53,0,0,1,1.68,6.12c.14.66.27,1.32.39,2,.06.3.1.51.13.68s0,.33.05.57A50.14,50.14,0,0,1,165,123c0,.77,0,1.53-.07,2.3,0,.32-.26,2.48-.23,2.58a46.71,46.71,0,0,1-2.08,8c-.14.39-.3.78-.45,1.17s-.56,1.23-.65,1.41c-.77,1.44-1.51,2.87-2.38,4.26-.42.68-.87,1.34-1.32,2l-.65.9c-.28.36-.65.83-.67.84-.5.59-1,1.18-1.54,1.76s-1.34,1.37-2,2c-2.57-2.06-5.12-4.13-7.62-6.25-14.11-12-28.22-24.32-40.39-38.3-.88-1-1.75-2-2.61-3.08-.32-.4-.64-.81-1-1.21-.87-1.22-1.77-2.41-2.56-3.68-.45-.71-.8-1.52-1.27-2.22-5-10.13-22.4-4.85-18.63,6.89,1.54,4.8,5,8.94,8,12.81,9.21,11.61,20.24,21.8,31.26,31.65,6.66,5.94,13.74,11.57,20.79,17.26C136,167.54,132.82,170.79,128.6,173.06Zm-3.1,261.69a15,15,0,1,1,15-15A15.14,15.14,0,0,1,125.5,434.75Zm91.11,41.11c-6,5.66-15.26,5.95-21.22,0a15.07,15.07,0,0,1,0-21.22,14.91,14.91,0,0,1,8.89-4.26,11.47,11.47,0,0,0,2.27-.08,15,15,0,0,1,10.06,4.34A15.11,15.11,0,0,1,216.61,475.86Zm80.89-55.11a15,15,0,1,1-15-15A15.14,15.14,0,0,1,297.5,420.75ZM229.23,276.26c.46-.63.74-.91,0,0ZM480.31,36l-.18,1.47v0c-.36,2.57-.73,5.14-1.13,7.71a433,433,0,0,1-20.13,79.9c-11.23,31.22-26.83,61.58-48.19,87.12-12.36,14.78-26.5,28.93-43.23,38.7a68.23,68.23,0,0,1-19.16,8c-1.35.33-2.72.6-4.09.86l-.61.11-.22,0c-.82.1-1.63.17-2.45.23a62.7,62.7,0,0,1-8.45-.11l-.4,0-.08,0c-.74-.12-1.47-.24-2.2-.39-1.15-.24-2.29-.51-3.42-.82s-2.51-.75-3.74-1.19l-1.47-.56-1.3-.58a68.83,68.83,0,0,1-6.35-3.52c-1.08-.69-2.13-1.42-3.18-2.14-.26-.18-.51-.38-.76-.56s-1.05-.81-1.27-1a101,101,0,0,1-11.12-11c-.75-.87-1.48-1.74-2.2-2.63,2.43-1.28,4.83-2.61,7.19-4a223.4,223.4,0,0,0,33.37-24.87,313.73,313.73,0,0,0,52.6-60c7.19-10.73-10.13-20.75-17.26-10.1-12.58,18.79-28,36.13-44.83,51.71a208,208,0,0,1-32,24.77c-3.86,2.37-7.84,4.53-11.87,6.59-.83-.86-1.65-1.72-2.46-2.59-1.35-1.45-2.69-2.91-4-4.4-.79-.9-1.56-1.8-2.32-2.72-.31-.37-.6-.75-.91-1.12l-.19-.22,0,0a77.4,77.4,0,0,1-7-11.42l-.11-.23c-.22-.56-.44-1.11-.64-1.67-.35-1-.68-2-1-3-.34-1.18-.63-2.36-.88-3.56-.14-.68-.26-1.36-.38-2,0-.12,0-.22-.05-.3s0-.26,0-.44c-.85-13.09,2.38-24.57,8.69-37.26A179.31,179.31,0,0,1,301.38,105c20.6-21.65,46.21-37.56,73.37-49.95C397.82,44.53,423.61,36.37,449,30.49q13.86-3.22,27.9-5.56l4.74-.75c-.28,2.89-.58,5.77-.93,8.66Q480.52,34.42,480.31,36Z" transform="translate(2.53 0.31)"/></svg>