<?xml version="1.0" encoding="utf-8"?>
<!-- Generator: Adobe Illustrator 23.0.3, SVG Export Plug-In . SVG Version: 6.00 Build 0)  -->
<svg version="1.1" id="LOGO_TEXT_RIGHT" xmlns="http://www.w3.org/2000/svg" xmlns:xlink="http://www.w3.org/1999/xlink" x="0px"
	 y="0px" viewBox="0 0 1257 500" style="enable-background:new 0 0 1257 500;" xml:space="preserve">
<path d="M505.03,13.06c0.16-4.07-1.73-6.85-4.41-8.34c-1.61-1.18-3.54-1.85-5.59-1.66c-37.5,3.55-75.34,13.55-110.21,27.51
	c-29.97,11.99-58.58,27.55-82.92,48.95c-13.57,11.94-25.1,25.79-34.98,40.91c-9.65,14.78-18.49,31.41-21.28,49.05
	c-2.09,13.2-0.75,26.03,4.93,38.18c3.76,8.04,9.41,15.06,15.36,21.62c-0.14,0.07-0.27,0.13-0.41,0.2
	c-14.71,7.39-29.84,15.16-41.95,26.52c-0.22,0.2-0.42,0.42-0.64,0.62c-3.99-19.87-11.57-39.4-21.44-56.31
	c-5.97-10.23-13.18-19.88-21.41-28.41c-2.92-3.02-6.01-5.87-9.18-8.63c6.87-7.11,12.05-15.77,14.65-25.44
	c4.78-17.78,0.09-36.43-9.41-51.82c-14.78-23.94-39.01-42.19-63.17-55.84C92.23,18.47,69.59,9.76,46.31,4.72
	C34.72,2.21,21.99-0.43,10.03,0.06c-5.06,0-10.46,4.59-10,10C2.12,34.9,7.84,59.9,15.63,83.52c6.86,20.8,15.76,41.27,27.96,59.53
	c12.76,19.09,29.73,37.82,51,47.41c11.41,5.15,24,7.57,36.31,4.33c10.53-2.78,19.08-9.29,26.04-17.32
	c7.52,6.76,14.55,13.98,20.4,22.24c11.68,16.5,19.26,34.47,24.09,53.99c1.02,4.12,1.9,8.28,2.65,12.46
	c0.32,1.77,0.59,3.55,0.87,5.33c0.05,0.29,0.08,0.59,0.13,0.88c0.07,0.56,0.14,1.11,0.21,1.67c0.33,2.84,0.63,5.71,0.73,8.58
	c-1.26,3.28-2.31,6.66-3.16,10.1c-3.61,14.64-4.77,29.9-5.14,45.13c-0.42,0.34-0.84,0.71-1.25,1.15
	c-16.16,17.48-32.31,34.96-48.47,52.44c-7.63-5.22-17.22-7.35-26.67-5.68c-15.99,2.82-27.1,17.01-28.21,32.72
	c-0.06,0.51-0.09,1.04-0.08,1.59c-0.02,0.68,0.03,1.32,0.12,1.92c1.08,14.03,9.74,25.97,23.09,31c13.24,4.99,29.15,0.69,38.25-10.07
	c8.37-9.89,10.73-23.74,6.09-35.67c12.31-13.32,24.63-26.64,36.94-39.97c0,20.72,0,41.44,0,62.16c0,1.02,0,2.04,0,3.06
	c-11.01,3.74-19.94,12.63-22.88,24.29c-3.63,14.45,2.27,29.49,14.48,37.89c13.3,9.15,30.94,7,42.82-3.18
	c0.45-0.35,0.89-0.73,1.32-1.18c0.53-0.5,0.97-1.02,1.36-1.54c9.11-10.74,11.41-25.3,5.42-38.3c-4.24-9.2-12.82-16.04-22.52-18.69
	c0-21.07,0-42.15,0-63.22c11.97,12.59,23.94,25.18,35.91,37.76c-4.7,10.22-4.49,22.39,1.37,32.4c7.53,12.86,22.42,19.21,36.93,16.65
	c15.99-2.82,27.1-17.01,28.21-32.72c0.06-0.51,0.09-1.04,0.08-1.59c0.02-0.68-0.03-1.32-0.12-1.92c-1.08-14.03-9.74-25.97-23.09-31
	c-9.86-3.72-21.19-2.27-30.09,3.14c-16.3-17.14-32.6-34.29-48.9-51.43c0.11-4.06,0.26-8.12,0.48-12.18
	c0.27-4.8,0.62-9.61,1.15-14.39c0.34-3.05,0.21-2.13,0.61-4.71c0.3-1.97,0.64-3.94,1.04-5.89c0.71-3.55,1.58-7.08,2.69-10.53
	c0.51-1.59,1.1-3.15,1.69-4.71c0.02-0.05,0.03-0.08,0.03-0.09c0.04-0.08,0.08-0.16,0.13-0.26c0.37-0.77,0.71-1.54,1.1-2.3
	c1.39-2.76,3.01-5.34,4.77-7.87c0.08-0.11,0.16-0.22,0.23-0.32c0.49-0.6,0.98-1.2,1.49-1.79c1.02-1.17,2.08-2.3,3.19-3.39
	c1.13-1.12,2.31-2.2,3.52-3.25c0.57-0.5,1.16-0.98,1.74-1.46c0.26-0.21,0.73-0.58,1.05-0.83c2.79-2.07,5.67-4.02,8.62-5.86
	c7.34-4.58,15.03-8.6,22.76-12.49c1.72-0.87,3.46-1.72,5.19-2.57c2.25,2.99,4.61,5.91,7.09,8.71c7.64,8.61,16.89,16.37,27.47,21.08
	c30.84,13.72,61.7-0.26,86.01-20.42c29.89-24.78,52.45-58.25,68.48-93.35c20.71-45.32,33.42-95.57,36.55-145.38
	c0.03-0.48,0.05-0.96,0.08-1.43C505,13.81,505.03,13.44,505.03,13.06z M131.13,173.36c-6.86,3.68-14.11,3.66-21.59,1.49
	c-18.8-5.46-34.55-21.98-45.61-37.46c-11.37-15.9-19.98-33.67-26.56-52.04C31.16,68,26.52,50.06,23.2,31.92
	c-0.62-3.36-1.18-6.73-1.7-10.11c-0.05-0.35-0.1-0.69-0.15-1.04c1,0.1,2,0.21,3,0.32c0.22,0.02,0.44,0.05,0.66,0.08
	c0.23,0.03,1.54,0.2,1.76,0.24c1.91,0.29,3.81,0.59,5.71,0.92c19.6,3.43,38.88,9.44,56.83,18.04c23.41,11.22,46.2,26.37,62.93,46.45
	c5.47,6.56,10.36,14.66,12.78,21.93c0.67,2.01,1.23,4.05,1.68,6.12c0.14,0.66,0.27,1.33,0.39,1.99c0.06,0.3,0.1,0.51,0.13,0.68
	c0.01,0.15,0.03,0.33,0.05,0.57c0.17,1.73,0.25,3.46,0.24,5.2c-0.01,0.77-0.03,1.53-0.07,2.3c-0.02,0.32-0.26,2.48-0.24,2.58
	c-0.45,2.71-1.15,5.38-2.08,7.97c-0.14,0.39-0.3,0.78-0.45,1.17c-0.15,0.32-0.56,1.23-0.65,1.41c-0.77,1.44-1.51,2.88-2.37,4.26
	c-0.42,0.68-0.88,1.34-1.32,2.01c-0.01,0.01-0.38,0.53-0.65,0.9c-0.28,0.35-0.65,0.82-0.66,0.84c-0.51,0.59-1.02,1.18-1.54,1.75
	c-0.65,0.71-1.34,1.38-2.03,2.05c-2.56-2.06-5.12-4.14-7.62-6.26c-14.11-11.96-28.22-24.32-40.39-38.29
	c-0.88-1.02-1.76-2.04-2.61-3.08c-0.33-0.4-0.64-0.81-0.98-1.21c-0.87-1.22-1.77-2.41-2.56-3.67c-0.45-0.71-0.8-1.53-1.26-2.22
	c-5.01-10.13-22.4-4.85-18.64,6.89c1.54,4.8,4.97,8.94,8.04,12.81c9.21,11.61,20.24,21.81,31.26,31.65
	c6.66,5.95,13.74,11.57,20.78,17.26C138.49,167.85,135.35,171.1,131.13,173.36z M128.03,435.06c-8.37-0.04-14.78-6.76-15-15
	c0.22-8.21,6.63-15,15-15c8.21,0,15,6.79,15,15C143.03,428.24,136.24,435.1,128.03,435.06z M219.13,476.16
	c-5.99,5.66-15.26,5.95-21.21,0c-5.83-5.83-5.83-15.38,0-21.21c2.48-2.48,5.64-3.89,8.89-4.26c0.75,0.05,1.51,0.02,2.26-0.08
	c3.66,0.13,7.29,1.57,10.06,4.34C225.09,460.9,224.79,470.17,219.13,476.16z M300.03,421.06c-0.22,8.21-6.63,15-15,15
	c-8.21,0-15-6.79-15-15c0-8.18,6.79-15.04,15-15C293.4,406.1,299.8,412.82,300.03,421.06z M231.75,276.56
	C232.22,275.94,232.5,275.66,231.75,276.56L231.75,276.56z M482.84,36.3c-0.06,0.49-0.13,0.98-0.19,1.47c0,0.01,0,0.02,0,0.03
	c-0.36,2.57-0.73,5.14-1.13,7.71c-4.22,27.16-10.84,54.02-20.14,79.9c-11.22,31.22-26.83,61.58-48.18,87.12
	c-12.36,14.78-26.5,28.93-43.24,38.7c-6.37,3.72-12.03,6.27-19.15,8.02c-1.36,0.33-2.72,0.6-4.09,0.86
	c-0.25,0.05-0.45,0.08-0.61,0.12c-0.06,0.01-0.13,0.01-0.22,0.02c-0.81,0.09-1.63,0.17-2.44,0.22c-2.83,0.19-5.63,0.09-8.45-0.11
	c-0.16-0.01-0.28-0.02-0.4-0.03c-0.03-0.01-0.05-0.01-0.08-0.01c-0.73-0.12-1.47-0.25-2.2-0.4c-1.15-0.23-2.29-0.51-3.43-0.82
	c-1.26-0.35-2.5-0.74-3.73-1.19c-0.5-0.18-0.98-0.37-1.47-0.56c-0.28-0.12-0.96-0.42-1.3-0.58c-2.18-1.07-4.3-2.22-6.35-3.52
	c-1.08-0.68-2.13-1.42-3.18-2.14c-0.26-0.18-0.51-0.37-0.76-0.56c-0.24-0.19-1.05-0.81-1.26-0.99c-3.99-3.38-7.7-7.02-11.13-10.97
	c-0.75-0.86-1.48-1.74-2.2-2.62c2.43-1.28,4.83-2.61,7.19-4.01c11.92-7.09,22.99-15.69,33.37-24.87
	c19.85-17.56,37.85-37.93,52.61-59.97c7.18-10.72-10.14-20.75-17.27-10.09c-12.58,18.78-28,36.13-44.83,51.71
	c-9.92,9.19-20.48,17.67-32.01,24.76c-3.86,2.37-7.84,4.53-11.87,6.59c-0.83-0.86-1.65-1.72-2.46-2.59c-1.35-1.45-2.69-2.91-4-4.4
	c-0.78-0.89-1.56-1.8-2.32-2.72c-0.31-0.37-0.6-0.75-0.91-1.12c-0.08-0.09-0.13-0.16-0.19-0.23c-0.01-0.01-0.02-0.02-0.03-0.04
	c-2.67-3.63-4.94-7.39-6.95-11.42c-0.05-0.09-0.08-0.16-0.12-0.23c-0.22-0.55-0.43-1.11-0.64-1.67c-0.36-0.99-0.68-2-0.97-3.01
	c-0.34-1.17-0.63-2.36-0.88-3.55c-0.14-0.68-0.26-1.36-0.38-2.05c-0.02-0.12-0.04-0.22-0.05-0.3c-0.01-0.12-0.01-0.26-0.03-0.44
	c-0.85-13.09,2.38-24.56,8.68-37.26c7.94-15.97,18.19-30.87,30.44-43.74c20.6-21.65,46.21-37.56,73.37-49.95
	c23.07-10.53,48.86-18.69,74.24-24.57c9.24-2.14,18.54-4.01,27.9-5.56c1.58-0.26,3.16-0.51,4.74-0.75
	c-0.28,2.89-0.58,5.77-0.92,8.66C483.1,34.2,482.98,35.25,482.84,36.3z"/>
<g>
	<path d="M590.43,197.9l33.52,51.75l33.52-51.75h16.32v102.9h-17.64v-69.09l-32.19,48.95l-32.19-48.95v69.09h-17.64V197.9H590.43z"
		/>
	<path d="M760.07,231.12v69.68h-16.32v-9.11c0,0-6.03,10.88-21.02,10.88c-18.08,0-33.96-15.14-33.96-36.6
		c0-21.46,15.88-36.6,33.96-36.6c14.55,0,21.02,10.88,21.02,10.88v-9.11H760.07z M742.43,255.53c0,0-5.15-9.7-16.46-9.7
		c-11.91,0-19.26,8.67-19.26,20.14c0,11.47,7.35,20.14,19.26,20.14c11.32,0,16.46-9.7,16.46-9.7V255.53z"/>
	<path d="M772.12,231.12h13.67V210.4h17.64v20.73h21.02V247h-21.02v28.08c0,8.53,4.41,11.03,9.11,11.03c3.97,0,7.35-2.5,7.35-2.5
		l6.47,14.41c0,0-6.62,4.56-16.76,4.56c-13.52,0-23.81-9.85-23.81-24.7V247h-13.67V231.12z"/>
	<path d="M908.54,265.96c0,20.43-16.46,36.6-37.19,36.6s-37.19-16.17-37.19-36.6c0-20.58,16.46-36.6,37.19-36.6
		S908.54,245.38,908.54,265.96z M890.6,265.96c0-10.88-7.35-20.14-19.26-20.14s-19.26,9.26-19.26,20.14s7.35,20.14,19.26,20.14
		S890.6,276.84,890.6,265.96z"/>
	<path d="M939.85,197.9l33.52,51.75l33.52-51.75h16.32v102.9h-17.64v-69.09l-32.19,48.95l-32.19-48.95v69.09h-17.64V197.9H939.85z"
		/>
	<path d="M1109.48,231.12v69.68h-16.32v-9.11c0,0-6.03,10.88-21.02,10.88c-18.08,0-33.96-15.14-33.96-36.6
		c0-21.46,15.88-36.6,33.96-36.6c14.55,0,21.02,10.88,21.02,10.88v-9.11H1109.48z M1091.84,255.53c0,0-5.15-9.7-16.46-9.7
		c-11.91,0-19.26,8.67-19.26,20.14c0,11.47,7.35,20.14,19.26,20.14c11.32,0,16.46-9.7,16.46-9.7V255.53z"/>
	<path d="M1121.54,231.12h13.67V210.4h17.64v20.73h21.02V247h-21.02v28.08c0,8.53,4.41,11.03,9.11,11.03c3.97,0,7.35-2.5,7.35-2.5
		l6.47,14.41c0,0-6.62,4.56-16.76,4.56c-13.52,0-23.81-9.85-23.81-24.7V247h-13.67V231.12z"/>
	<path d="M1257.95,265.96c0,20.43-16.46,36.6-37.19,36.6s-37.19-16.17-37.19-36.6c0-20.58,16.46-36.6,37.19-36.6
		S1257.95,245.38,1257.95,265.96z M1240.02,265.96c0-10.88-7.35-20.14-19.26-20.14s-19.26,9.26-19.26,20.14s7.35,20.14,19.26,20.14
		S1240.02,276.84,1240.02,265.96z"/>
</g>
</svg>
