<svg id="LOGO_TEXT_RIGHT" data-name="LOGO TEXT RIGHT" xmlns="http://www.w3.org/2000/svg" viewBox="0 0 1257.95 500.47"><defs><style>.cls-1{fill:#fff;}</style></defs><title>matomato-white</title><path class="cls-1" d="M505,13.06a8.66,8.66,0,0,0-4.41-8.35A8.09,8.09,0,0,0,495,3.06c-37.51,3.55-75.34,13.55-110.21,27.51-30,12-58.58,27.54-82.92,48.95a198.86,198.86,0,0,0-35,40.91c-9.65,14.78-18.49,31.42-21.28,49-2.08,13.2-.75,26,4.93,38.18,3.76,8.05,9.41,15.06,15.37,21.63l-.41.2c-14.72,7.38-29.84,15.16-41.95,26.52l-.64.63a186.08,186.08,0,0,0-21.44-56.32,149.7,149.7,0,0,0-21.41-28.41c-2.92-3-6-5.86-9.19-8.62a58.7,58.7,0,0,0,14.65-25.44c4.79-17.78.1-36.44-9.4-51.82-14.79-24-39-42.2-63.18-55.85A239.14,239.14,0,0,0,46.31,4.72C34.72,2.21,22-.43,10,.06,5,.06-.43,4.65,0,10.06,2.12,34.9,7.84,59.9,15.63,83.52c6.86,20.8,15.76,41.27,28,59.53,12.76,19.09,29.73,37.81,51,47.41,11.41,5.14,24,7.57,36.32,4.32,10.53-2.77,19.08-9.29,26-17.31a135.51,135.51,0,0,1,20.39,22.23c11.69,16.5,19.27,34.47,24.09,54q1.53,6.19,2.65,12.47c.32,1.77.6,3.55.87,5.33.05.29.09.58.13.88l.21,1.67c.33,2.84.63,5.71.73,8.57a85.15,85.15,0,0,0-3.17,10.1c-3.61,14.64-4.76,29.9-5.14,45.13a11,11,0,0,0-1.24,1.15L148,391.42a36.15,36.15,0,0,0-26.67-5.68c-16,2.83-27.1,17-28.2,32.72a10.39,10.39,0,0,0-.08,1.6,10.82,10.82,0,0,0,.12,1.92,35.58,35.58,0,0,0,23.09,31c13.24,5,29.15.69,38.25-10.07a35.62,35.62,0,0,0,6.09-35.68l36.95-40v65.22a34.91,34.91,0,0,0-22.88,24.29,35.52,35.52,0,0,0,14.48,37.89c13.3,9.15,31,7,42.82-3.18a12,12,0,0,0,1.33-1.18,11.26,11.26,0,0,0,1.35-1.55,35.53,35.53,0,0,0,5.42-38.3,35,35,0,0,0-22.52-18.68V368.56q18,18.88,35.9,37.76a34.84,34.84,0,0,0,38.31,49.05c16-2.82,27.1-17,28.21-32.72a11.67,11.67,0,0,0,.08-1.59,10.94,10.94,0,0,0-.12-1.93,35.63,35.63,0,0,0-23.1-31,35,35,0,0,0-30.09,3.15l-48.9-51.43c.11-4.07.26-8.13.48-12.19.27-4.8.63-9.6,1.15-14.38.34-3.06.21-2.13.61-4.72.3-2,.64-3.93,1-5.89a95.57,95.57,0,0,1,2.69-10.53c.51-1.59,1.1-3.15,1.69-4.71a.42.42,0,0,0,0-.09c0-.08.08-.16.12-.26.37-.76.72-1.54,1.1-2.3a64.88,64.88,0,0,1,4.77-7.87l.23-.32c.49-.59,1-1.2,1.49-1.78,1-1.17,2.09-2.3,3.19-3.39s2.31-2.2,3.52-3.25c.57-.5,1.15-1,1.74-1.46.26-.22.73-.58,1.05-.83q4.18-3.11,8.62-5.86c7.34-4.58,15-8.59,22.75-12.49,1.73-.87,3.46-1.72,5.2-2.57,2.25,3,4.61,5.92,7.09,8.71,7.63,8.61,16.89,16.37,27.46,21.08,30.84,13.72,61.7-.26,86-20.42,29.9-24.78,52.45-58.25,68.49-93.35A416.56,416.56,0,0,0,504.89,15.6c0-.48.05-1,.08-1.43S505,13.44,505,13.06Zm-373.9,160.3c-6.86,3.69-14.11,3.67-21.59,1.5-18.8-5.47-34.54-22-45.61-37.46-11.37-15.9-20-33.67-26.56-52A340.94,340.94,0,0,1,23.2,31.92q-.93-5-1.7-10.1c-.06-.35-.1-.7-.16-1l3,.32.67.08,1.76.24c1.9.29,3.81.59,5.71.92a219.38,219.38,0,0,1,56.83,18c23.41,11.22,46.2,26.37,62.93,46.46,5.47,6.56,10.36,14.65,12.78,21.93a58.74,58.74,0,0,1,1.68,6.11c.14.67.27,1.33.39,2,0,.3.1.51.13.68s0,.33.05.57a50.14,50.14,0,0,1,.24,5.2c0,.76,0,1.53-.07,2.29,0,.32-.26,2.49-.24,2.58a45.34,45.34,0,0,1-2.08,8c-.14.4-.29.78-.44,1.17s-.56,1.23-.66,1.42c-.76,1.44-1.51,2.87-2.37,4.26-.42.68-.88,1.34-1.32,2,0,0-.39.53-.65.9s-.65.82-.67.84c-.51.59-1,1.18-1.54,1.75s-1.34,1.38-2,2c-2.56-2.06-5.11-4.14-7.61-6.26C133.71,132.36,119.6,120,107.43,106c-.88-1-1.76-2-2.61-3.08-.33-.4-.64-.82-1-1.21-.86-1.22-1.76-2.41-2.55-3.68-.45-.71-.8-1.53-1.27-2.22C95,85.7,77.62,91,81.38,102.72c1.54,4.8,5,8.93,8.05,12.8,9.2,11.61,20.24,21.81,31.26,31.65,6.66,6,13.74,11.57,20.78,17.27C138.49,167.85,135.35,171.1,131.13,173.36ZM128,435.06a15,15,0,1,1,15-15A15.15,15.15,0,0,1,128,435.06Zm91.1,41.1c-6,5.66-15.26,6-21.21,0a15,15,0,0,1,8.89-25.47,11.37,11.37,0,0,0,2.26-.08A14.91,14.91,0,0,1,219.13,455C225.09,460.9,224.79,470.17,219.13,476.16Zm80.9-55.1a15,15,0,1,1-15-15A15.14,15.14,0,0,1,300,421.06Zm-68.28-144.5c.47-.62.75-.9,0,0ZM482.84,36.3c-.06.49-.13,1-.19,1.46v0c-.36,2.58-.73,5.15-1.13,7.71a432.59,432.59,0,0,1-20.14,79.9c-11.22,31.22-26.83,61.59-48.18,87.13-12.36,14.78-26.5,28.92-43.24,38.7a68.35,68.35,0,0,1-19.15,8c-1.36.33-2.72.6-4.09.85l-.62.12-.22,0c-.81.09-1.62.17-2.44.22a59.57,59.57,0,0,1-8.45-.11l-.4,0h-.08c-.74-.12-1.47-.25-2.2-.4-1.15-.23-2.29-.5-3.43-.82s-2.5-.74-3.73-1.18l-1.47-.56c-.29-.13-1-.42-1.3-.59a66.56,66.56,0,0,1-6.35-3.52c-1.08-.68-2.13-1.41-3.18-2.14l-.77-.56c-.24-.19-1.05-.81-1.26-1a101.13,101.13,0,0,1-11.13-11c-.74-.86-1.47-1.74-2.2-2.62,2.43-1.28,4.83-2.61,7.19-4a223.06,223.06,0,0,0,33.37-24.87,313.84,313.84,0,0,0,52.61-60c7.18-10.72-10.13-20.74-17.27-10.09a294.32,294.32,0,0,1-44.83,51.71,206.32,206.32,0,0,1-32,24.76c-3.85,2.38-7.83,4.53-11.86,6.59q-1.24-1.29-2.46-2.58c-1.35-1.46-2.69-2.92-4-4.41-.78-.89-1.55-1.8-2.31-2.71-.31-.37-.61-.75-.91-1.12l-.19-.23,0,0a76.72,76.72,0,0,1-7-11.41c0-.09-.08-.16-.12-.24-.21-.55-.43-1.1-.63-1.66-.36-1-.68-2-1-3-.34-1.17-.63-2.35-.88-3.55-.14-.68-.26-1.36-.38-2,0-.12,0-.21-.05-.3s0-.25,0-.44c-.85-13.09,2.38-24.56,8.69-37.26a179,179,0,0,1,30.44-43.74c20.6-21.65,46.21-37.55,73.37-49.95,23.07-10.53,48.86-18.69,74.24-24.57q13.86-3.21,27.9-5.55c1.58-.27,3.15-.51,4.73-.75q-.4,4.34-.92,8.65C483.1,34.2,483,35.25,482.84,36.3Z" transform="translate(0 0)"/><path class="cls-1" d="M590.43,197.9,624,249.65l33.52-51.75h16.31V300.8H656.14V231.71l-32.19,49-32.19-49V300.8H574.12V197.9Z" transform="translate(0 0)"/><path class="cls-1" d="M760.07,231.12V300.8H743.75v-9.11s-6,10.88-21,10.88c-18.08,0-34-15.14-34-36.61s15.88-36.6,34-36.6a25,25,0,0,1,21,10.88v-9.12Zm-17.64,24.41s-5.15-9.71-16.47-9.71c-11.9,0-19.25,8.68-19.25,20.14S714.06,286.1,726,286.1c11.32,0,16.47-9.7,16.47-9.7Z" transform="translate(0 0)"/><path class="cls-1" d="M772.12,231.12h13.67V210.4h17.64v20.72h21V247h-21v28.08c0,8.52,4.41,11,9.12,11a14,14,0,0,0,7.35-2.5L826.37,298a31.75,31.75,0,0,1-16.76,4.56c-13.53,0-23.82-9.85-23.82-24.7V247H772.12Z" transform="translate(0 0)"/><path class="cls-1" d="M908.54,266c0,20.44-16.47,36.61-37.2,36.61S834.15,286.4,834.15,266s16.47-36.6,37.19-36.6S908.54,245.38,908.54,266Zm-17.94,0c0-10.87-7.35-20.14-19.26-20.14s-19.25,9.27-19.25,20.14,7.35,20.14,19.25,20.14S890.6,276.84,890.6,266Z" transform="translate(0 0)"/><path class="cls-1" d="M939.85,197.9l33.51,51.75,33.52-51.75h16.32V300.8h-17.64V231.71l-32.2,49-32.19-49V300.8H923.53V197.9Z" transform="translate(0 0)"/><path class="cls-1" d="M1109.48,231.12V300.8h-16.31v-9.11s-6,10.88-21,10.88c-18.08,0-34-15.14-34-36.61s15.87-36.6,34-36.6a25,25,0,0,1,21,10.88v-9.12Zm-17.64,24.41s-5.14-9.71-16.46-9.71c-11.91,0-19.26,8.68-19.26,20.14s7.35,20.14,19.26,20.14c11.32,0,16.46-9.7,16.46-9.7Z" transform="translate(0 0)"/><path class="cls-1" d="M1121.54,231.12h13.67V210.4h17.64v20.72h21V247h-21v28.08c0,8.52,4.41,11,9.11,11a14,14,0,0,0,7.35-2.5l6.47,14.41a31.75,31.75,0,0,1-16.76,4.56c-13.52,0-23.81-9.85-23.81-24.7V247h-13.67Z" transform="translate(0 0)"/><path class="cls-1" d="M1258,266c0,20.44-16.46,36.61-37.19,36.61s-37.19-16.17-37.19-36.61,16.46-36.6,37.19-36.6S1258,245.38,1258,266ZM1240,266c0-10.87-7.35-20.14-19.26-20.14s-19.26,9.27-19.26,20.14,7.35,20.14,19.26,20.14S1240,276.84,1240,266Z" transform="translate(0 0)"/></svg>